<?xml version="1.0" encoding="UTF-8"?>
<svg width="486px" height="332px" viewBox="0 0 486 332" version="1.1" xmlns="http://www.w3.org/2000/svg" xmlns:xlink="http://www.w3.org/1999/xlink">
    <title>departures</title>
    <defs>
        <filter id="filter-1">
            <feColorMatrix in="SourceGraphic" type="matrix" values="0 0 0 0 0.905882 0 0 0 0 0.901961 0 0 0 0 0.901961 0 0 0 1.000000 0"></feColorMatrix>
        </filter>
    </defs>
    <g id="Page-1" stroke="none" stroke-width="1" fill="none" fill-rule="evenodd">
        <g filter="url(#filter-1)" id="departures-(1)">
            <g>
                <path d="M150.972,82.758 L265.005,34.123 L170.799,1.089 C167.035,-0.231 162.911,-0.097 159.241,1.472 L126.415,15.466 C121.941,17.376 118.582,21.212 117.285,25.893 C115.98,30.573 116.879,35.587 119.729,39.528 L150.972,82.758 Z" id="XMLID_212_" fill="#000000" fill-rule="nonzero"></path>
                <path d="M484.683,21.188 C475.761,0.23 421.14,3.438 400.172,12.369 L101.612,139.696 C65.618,112.178 76.841,120.76 51.258,101.2 C46.681,97.707 40.584,96.934 35.283,99.195 L9.707,110.1 C5.52,111.892 2.297,115.378 0.84,119.684 C-0.617,123.999 -0.163,128.727 2.082,132.683 C23.415,170.301 12.828,151.627 52.516,221.627 C59.991,234.808 76.165,240.276 90.103,234.331 C116.426,223.107 84.372,236.775 203.445,185.998 C213.187,226.586 205.386,194.109 235.514,319.525 C236.613,324.102 239.669,327.955 243.872,330.072 C248.076,332.181 252.995,332.342 257.324,330.495 L289.897,316.603 C294.306,314.717 297.642,310.952 298.979,306.343 C342.138,157.309 336.439,176.988 352.208,122.557 L432.547,88.29 C453.528,79.343 493.629,42.147 484.683,21.188 Z" id="XMLID_211_" fill="#000000" fill-rule="nonzero"></path>
            </g>
        </g>
    </g>
</svg>